<svg width="143" height="31" fill="none" xmlns="http://www.w3.org/2000/svg"><path fill-rule="evenodd" clip-rule="evenodd" d="M48.257 18.832c0 .672.121 1.241.364 1.708.243.467.565.845.966 1.134.401.29.873.504 1.414.644.541.14 1.101.21 1.68.21.392 0 .812-.033 1.26-.098a4.382 4.382 0 0 0 1.26-.378 2.75 2.75 0 0 0 .98-.77c.261-.327.392-.742.392-1.246 0-.541-.173-.98-.518-1.316-.345-.336-.798-.616-1.358-.84-.56-.224-1.195-.42-1.904-.588a52.657 52.657 0 0 1-2.156-.56 19.143 19.143 0 0 1-2.184-.686 7.506 7.506 0 0 1-1.904-1.05 4.945 4.945 0 0 1-1.358-1.61c-.345-.644-.518-1.423-.518-2.338 0-1.027.22-1.918.658-2.674a5.962 5.962 0 0 1 1.722-1.89 7.504 7.504 0 0 1 2.408-1.12A10.243 10.243 0 0 1 52.15 5c1.045 0 2.049.117 3.01.35a7.508 7.508 0 0 1 2.562 1.134A5.737 5.737 0 0 1 59.5 8.486c.439.812.658 1.797.658 2.954h-4.256c-.037-.597-.163-1.092-.378-1.484-.215-.392-.5-.7-.854-.924a3.611 3.611 0 0 0-1.218-.476 7.498 7.498 0 0 0-1.498-.14c-.355 0-.71.037-1.064.112a2.846 2.846 0 0 0-.966.392c-.29.187-.527.42-.714.7-.187.28-.28.635-.28 1.064 0 .392.075.71.224.952.15.243.443.467.882.672.439.205 1.045.41 1.82.616.775.205 1.787.467 3.038.784.373.075.891.21 1.554.406.663.196 1.32.509 1.974.938.653.43 1.218 1.003 1.694 1.722.476.719.714 1.638.714 2.758a6.11 6.11 0 0 1-.532 2.548 5.535 5.535 0 0 1-1.582 2.03c-.7.57-1.568 1.013-2.604 1.33-1.036.317-2.235.476-3.598.476a12.63 12.63 0 0 1-3.206-.406c-1.036-.27-1.95-.695-2.744-1.274a6.294 6.294 0 0 1-1.89-2.212c-.467-.896-.69-1.96-.672-3.192h4.256zm14.588-3.388c.056-.933.29-1.708.7-2.324.41-.616.933-1.11 1.568-1.484a6.833 6.833 0 0 1 2.142-.798 12.177 12.177 0 0 1 2.394-.238c.728 0 1.465.051 2.212.154a6.766 6.766 0 0 1 2.044.602c.616.299 1.12.714 1.512 1.246.392.532.588 1.237.588 2.114v7.532c0 .653.037 1.279.112 1.876.075.597.205 1.045.392 1.344h-4.032a5.707 5.707 0 0 1-.28-1.4 5.181 5.181 0 0 1-2.24 1.372 8.992 8.992 0 0 1-2.632.392 7.11 7.11 0 0 1-1.932-.252 4.424 4.424 0 0 1-1.568-.784 3.65 3.65 0 0 1-1.05-1.344c-.252-.541-.378-1.185-.378-1.932 0-.821.145-1.498.434-2.03.29-.532.663-.957 1.12-1.274a5.02 5.02 0 0 1 1.568-.714c.588-.159 1.18-.285 1.778-.378a30.412 30.412 0 0 1 1.764-.224c.579-.056 1.092-.14 1.54-.252.448-.112.803-.275 1.064-.49.261-.215.383-.527.364-.938 0-.43-.07-.77-.21-1.022a1.545 1.545 0 0 0-.56-.588 2.203 2.203 0 0 0-.812-.28 6.644 6.644 0 0 0-.994-.07c-.784 0-1.4.168-1.848.504-.448.336-.71.896-.784 1.68h-3.976zm9.184 2.94c-.168.15-.378.266-.63.35a6.431 6.431 0 0 1-.812.21c-.29.056-.593.103-.91.14-.317.037-.635.084-.952.14-.299.056-.593.13-.882.224-.29.093-.541.22-.756.378-.215.159-.387.36-.518.602-.13.243-.196.55-.196.924 0 .355.065.653.196.896.13.243.308.434.532.574.224.14.485.238.784.294.299.056.607.084.924.084.784 0 1.39-.13 1.82-.392.43-.261.747-.574.952-.938.205-.364.331-.733.378-1.106a7.59 7.59 0 0 0 .07-.896v-1.484zm6.888-2.94c.056-.933.29-1.708.7-2.324.41-.616.933-1.11 1.568-1.484a6.833 6.833 0 0 1 2.142-.798 12.178 12.178 0 0 1 2.394-.238c.728 0 1.465.051 2.212.154a6.766 6.766 0 0 1 2.044.602c.616.299 1.12.714 1.512 1.246.392.532.588 1.237.588 2.114v7.532c0 .653.037 1.279.112 1.876.075.597.205 1.045.392 1.344H88.55a5.707 5.707 0 0 1-.28-1.4 5.181 5.181 0 0 1-2.24 1.372 8.992 8.992 0 0 1-2.632.392c-.69 0-1.335-.084-1.932-.252a4.424 4.424 0 0 1-1.568-.784 3.65 3.65 0 0 1-1.05-1.344c-.252-.541-.378-1.185-.378-1.932 0-.821.145-1.498.434-2.03a3.63 3.63 0 0 1 1.12-1.274 5.02 5.02 0 0 1 1.568-.714c.588-.159 1.18-.285 1.778-.378a30.423 30.423 0 0 1 1.764-.224c.579-.056 1.092-.14 1.54-.252.448-.112.803-.275 1.064-.49.262-.215.383-.527.364-.938 0-.43-.07-.77-.21-1.022a1.545 1.545 0 0 0-.56-.588 2.203 2.203 0 0 0-.812-.28 6.644 6.644 0 0 0-.994-.07c-.784 0-1.4.168-1.848.504-.448.336-.71.896-.784 1.68h-3.976zm9.184 2.94c-.168.15-.378.266-.63.35a6.436 6.436 0 0 1-.812.21c-.29.056-.593.103-.91.14-.317.037-.635.084-.952.14-.299.056-.593.13-.882.224-.29.093-.541.22-.756.378-.215.159-.387.36-.518.602-.13.243-.196.55-.196.924 0 .355.065.653.196.896.13.243.308.434.532.574.224.14.485.238.784.294.299.056.607.084.924.084.784 0 1.39-.13 1.82-.392.43-.261.747-.574.952-.938.205-.364.331-.733.378-1.106.047-.373.07-.672.07-.896v-1.484zm10.472.448c0 .672.122 1.241.364 1.708.243.467.565.845.966 1.134.401.29.873.504 1.414.644.541.14 1.101.21 1.68.21.392 0 .812-.033 1.26-.098a4.382 4.382 0 0 0 1.26-.378c.392-.187.719-.443.98-.77s.392-.742.392-1.246c0-.541-.173-.98-.518-1.316-.345-.336-.798-.616-1.358-.84-.56-.224-1.195-.42-1.904-.588a52.674 52.674 0 0 1-2.156-.56 19.146 19.146 0 0 1-2.184-.686 7.506 7.506 0 0 1-1.904-1.05 4.946 4.946 0 0 1-1.358-1.61c-.345-.644-.518-1.423-.518-2.338 0-1.027.22-1.918.658-2.674a5.963 5.963 0 0 1 1.722-1.89 7.505 7.505 0 0 1 2.408-1.12A10.243 10.243 0 0 1 102.465 5c1.045 0 2.049.117 3.01.35a7.507 7.507 0 0 1 2.562 1.134 5.736 5.736 0 0 1 1.778 2.002c.439.812.658 1.797.658 2.954h-4.256c-.037-.597-.163-1.092-.378-1.484-.215-.392-.5-.7-.854-.924a3.61 3.61 0 0 0-1.218-.476 7.498 7.498 0 0 0-1.498-.14c-.355 0-.71.037-1.064.112a2.846 2.846 0 0 0-.966.392c-.29.187-.527.42-.714.7-.187.28-.28.635-.28 1.064 0 .392.075.71.224.952.15.243.443.467.882.672.439.205 1.045.41 1.82.616.775.205 1.787.467 3.038.784.373.075.891.21 1.554.406.663.196 1.32.509 1.974.938.653.43 1.218 1.003 1.694 1.722.476.719.714 1.638.714 2.758 0 .915-.177 1.764-.532 2.548a5.535 5.535 0 0 1-1.582 2.03c-.7.57-1.568 1.013-2.604 1.33-1.036.317-2.235.476-3.598.476a12.63 12.63 0 0 1-3.206-.406c-1.036-.27-1.95-.695-2.744-1.274a6.294 6.294 0 0 1-1.89-2.212c-.467-.896-.69-1.96-.672-3.192h4.256zm18.844-10.08h-3.976V5.476h3.976v3.276zm-3.976 2.24h3.976v14.476h-3.976V10.992zm7.98 2.66h-2.38v-2.66h2.38v-1.12c0-1.288.401-2.343 1.204-3.164.803-.821 2.016-1.232 3.64-1.232.355 0 .71.014 1.064.042.355.028.7.051 1.036.07v2.968a12.22 12.22 0 0 0-1.456-.084c-.541 0-.929.126-1.162.378-.233.252-.35.677-.35 1.274v.868h2.744v2.66h-2.744v11.816h-3.976V13.652zm14.596 13.608c-.43 1.176-1.027 2.016-1.792 2.52-.765.504-1.83.756-3.192.756-.41 0-.817-.014-1.218-.042-.401-.028-.807-.06-1.218-.098V27.12c.373.037.756.075 1.148.112a8.25 8.25 0 0 0 1.176.028c.523-.056.91-.261 1.162-.616.252-.355.378-.747.378-1.176a2.39 2.39 0 0 0-.168-.896l-5.068-13.58h4.228l3.276 9.912h.056l3.164-9.912h4.116l-6.048 16.268z" fill="#171C34"/><path fill-rule="evenodd" clip-rule="evenodd" d="M23.183 18.72l-9.74-17.49C12.986.41 12.383 0 11.781 0c-.602 0-1.205.41-1.662 1.23L.38 18.72c-.913 1.642-.12 2.985 1.765 2.985H21.42c1.884 0 2.678-1.343 1.764-2.984zm-17.612-.854a.427.427 0 1 1-.002-.855.427.427 0 0 1 .002.855zm1.66-2.353l4.711-8.53a.429.429 0 0 0-.75-.411l-4.712 8.53a.425.425 0 0 0 .375.632c.151 0 .298-.08.376-.221z" fill="#1892EB"/><path d="M26.343 6c-2.713 0-5.218.882-7.245 2.371l5.582 10.014c.738 1.323.79 2.707.145 3.797-.645 1.09-1.887 1.716-3.408 1.716H15.59a12.213 12.213 0 0 0 10.753 6.392c6.742 0 12.208-5.438 12.208-12.145S33.085 6 26.343 6z" fill="#0074E4"/></svg>